<svg width="24" height="24" viewBox="0 0 24 24" fill="none" xmlns="http://www.w3.org/2000/svg">
<path fill-rule="evenodd" clip-rule="evenodd" d="M7.0033 3.09055C4.44043 4.23875 2.29908 5.21847 2.24478 5.26775C2.03069 5.46176 2.00199 5.60211 2.00199 6.45532C2.00199 7.2386 2.00709 7.27921 2.11792 7.38189C2.29264 7.54386 11.8699 12.2976 12.0214 12.2976C12.1717 12.2976 21.7013 7.54453 21.8779 7.38153C21.9885 7.27947 21.9938 7.23772 21.9938 6.48205C21.9938 5.58803 21.9522 5.42162 21.6773 5.21594C21.5821 5.14479 19.4349 4.16651 16.9055 3.04194C12.4151 1.0455 12.2991 0.997353 11.9848 1.00009C11.6745 1.00277 11.4966 1.07744 7.0033 3.09055ZM2.06382 8.79918C1.97721 8.88592 1.97942 9.8414 2.0664 9.9124C2.22314 10.0404 11.8894 14.8776 11.9884 14.8776C12.1481 14.8776 21.7962 10.0401 21.9025 9.90677C22.02 9.7594 22.0368 8.80212 21.9227 8.75832C21.8836 8.74325 19.6694 9.8237 17.0022 11.1593C13.8332 12.7461 12.0991 13.5876 11.9979 13.5876C11.8968 13.5876 10.1646 12.7472 6.99995 11.1625C4.33619 9.8286 2.14976 8.73726 2.14121 8.73726C2.13266 8.73726 2.09783 8.76513 2.06382 8.79918ZM16.8419 13.794C14.2339 15.0995 12.0574 16.1676 12.0051 16.1676C11.9529 16.1676 9.78335 15.1111 7.18395 13.8198C4.284 12.3792 2.401 11.472 2.31083 11.472C1.98736 11.472 2.00199 11.3093 2.00199 14.9088C2.00199 18.4434 1.99813 18.3902 2.27497 18.6874C2.43259 18.8567 2.25745 18.7751 7.233 20.9979C11.3699 22.846 11.7363 22.9999 11.9979 23C12.2529 23 12.4778 22.9127 14.2393 22.1297C15.3161 21.6511 16.2378 21.2248 16.2874 21.1823C16.3698 21.1118 16.3776 20.9618 16.3776 19.4336C16.3776 18.0109 16.3897 17.7386 16.459 17.6044C16.5266 17.4735 16.7106 17.3636 17.5406 16.9585C18.2231 16.6253 18.5854 16.4755 18.6816 16.4867C18.9342 16.516 18.9522 16.6294 18.9531 18.1929C18.9538 19.5555 18.9588 19.6298 19.0569 19.728C19.1136 19.7848 19.213 19.8312 19.2778 19.8312C19.4555 19.8312 21.4824 18.9133 21.6525 18.7558C21.734 18.6804 21.8437 18.5257 21.8961 18.4122C21.9859 18.2182 21.9916 18.0094 21.9919 14.9292C21.9921 13.1271 21.9752 11.6271 21.9544 11.5959C21.9096 11.5287 21.7142 11.4205 21.6375 11.4205C21.6079 11.4205 19.4498 12.4886 16.8419 13.794Z" fill="#292D32"/>
</svg>
