<svg width="24" height="25" viewBox="0 0 24 25" fill="none" xmlns="http://www.w3.org/2000/svg">
<path opacity="0.4" d="M20.6201 8.95C19.5701 4.33 15.5401 2.25 12.0001 2.25C12.0001 2.25 12.0001 2.25 11.9901 2.25C8.4601 2.25 4.4201 4.32 3.3701 8.94C2.2001 14.1 5.3601 18.47 8.2201 21.22C9.2801 22.24 10.6401 22.75 12.0001 22.75C13.3601 22.75 14.7201 22.24 15.7701 21.22C18.6301 18.47 21.7901 14.11 20.6201 8.95Z" fill="#EDBB00"/>
<path d="M11.9996 13.96C13.7393 13.96 15.1496 12.5497 15.1496 10.81C15.1496 9.07034 13.7393 7.66003 11.9996 7.66003C10.2599 7.66003 8.84961 9.07034 8.84961 10.81C8.84961 12.5497 10.2599 13.96 11.9996 13.96Z" fill="#EDBB00"/>
</svg>
