<svg width="20" height="21" viewBox="0 0 20 21" fill="none" xmlns="http://www.w3.org/2000/svg">
<path d="M9.97007 0.899995C4.45007 0.919995 -0.0199331 5.41 6.68532e-05 10.93C0.0200669 16.45 4.51007 20.92 10.0301 20.9C15.5501 20.88 20.0201 16.39 20.0001 10.87C19.9801 5.35 15.4901 0.889995 9.97007 0.899995ZM12.2601 11C13.0401 11.27 14.0901 11.85 14.0901 13.64C14.0901 15.18 12.8801 16.42 11.4001 16.42H10.7501V17C10.7501 17.41 10.4101 17.75 10.0001 17.75C9.59007 17.75 9.25007 17.41 9.25007 17V16.42H8.89007C7.25007 16.42 5.92007 15.04 5.92007 13.34C5.92007 12.93 6.26007 12.59 6.67007 12.59C7.08007 12.59 7.42007 12.93 7.42007 13.34C7.42007 14.21 8.08007 14.92 8.89007 14.92H9.25007V11.54L7.74007 11C6.96007 10.73 5.91007 10.15 5.91007 8.35999C5.91007 6.81999 7.12007 5.58 8.60007 5.58H9.25007V5C9.25007 4.59 9.59007 4.25 10.0001 4.25C10.4101 4.25 10.7501 4.59 10.7501 5V5.58H11.1101C12.7501 5.58 14.0801 6.96 14.0801 8.66C14.0801 9.06999 13.7401 9.41 13.3301 9.41C12.9201 9.41 12.5801 9.06999 12.5801 8.66C12.5801 7.79 11.9201 7.08 11.1101 7.08H10.7501V10.46L12.2601 11Z" fill="#292D32"/>
</svg>
