<svg width="21" height="20" viewBox="0 0 21 20" fill="none" xmlns="http://www.w3.org/2000/svg">
<path d="M11.7299 1.51L13.4899 5.03C13.7299 5.52 14.3699 5.99 14.9099 6.08L18.0999 6.61C20.1399 6.95 20.6199 8.43 19.1499 9.89L16.6699 12.37C16.2499 12.79 16.0199 13.6 16.1499 14.18L16.8599 17.25C17.4199 19.68 16.1299 20.62 13.9799 19.35L10.9899 17.58C10.4499 17.26 9.55991 17.26 9.00991 17.58L6.01991 19.35C3.87991 20.62 2.57991 19.67 3.13991 17.25L3.84991 14.18C3.97991 13.6 3.74991 12.79 3.32991 12.37L0.849909 9.89C-0.610091 8.43 -0.140091 6.95 1.89991 6.61L5.08991 6.08C5.61991 5.99 6.25991 5.52 6.49991 5.03L8.25991 1.51C9.21991 -0.400001 10.7799 -0.400001 11.7299 1.51Z" fill="#FFD435"/>
</svg>
